<svg version="1.1" id="Layer_1" xmlns="http://www.w3.org/2000/svg" xmlns:xlink="http://www.w3.org/1999/xlink" x="0px" y="0px"
	 width="100%" viewBox="0 0 128 128" enable-background="new 0 0 128 128" xml:space="preserve">
<path fill="#020202" opacity="1.000000" stroke="none" 
	d="
M74.000000,129.000000 
	C49.333332,129.000000 25.166666,129.000000 1.000000,129.000000 
	C1.000000,86.333336 1.000000,43.666668 1.000000,1.000000 
	C43.666668,1.000000 86.333336,1.000000 129.000000,1.000000 
	C129.000000,43.666668 129.000000,86.333336 129.000000,129.000000 
	C110.833336,129.000000 92.666664,129.000000 74.000000,129.000000 
M57.118221,13.385299 
	C49.594357,17.652161 42.214909,22.202366 34.516224,26.126232 
	C19.030855,34.018814 22.344749,51.456841 33.474686,58.516842 
	C38.528667,61.722706 43.740887,64.698570 49.011013,67.538071 
	C53.231388,69.811966 55.065445,68.562500 55.227200,63.597210 
	C55.384293,58.775002 55.181522,53.924690 55.626091,49.132107 
	C56.275139,42.135178 57.219940,41.729317 63.119602,45.122959 
	C73.791573,51.261761 84.421310,57.474152 95.106613,63.589527 
	C101.062714,66.998291 103.106918,65.754456 103.143471,58.821262 
	C103.170685,53.658817 103.074699,48.494862 103.163460,43.333809 
	C103.289429,36.009216 100.333458,30.507555 93.916565,26.861193 
	C86.683929,22.751284 79.509499,18.539015 72.279663,14.424120 
	C67.694542,11.814477 62.872124,11.272013 57.118221,13.385299 
M78.590340,111.041039 
	C83.186424,108.363319 87.609093,105.313057 92.411140,103.077812 
	C106.732712,96.411400 106.252579,78.668373 93.419746,70.467049 
	C88.522888,67.337517 83.437904,64.489120 78.342499,61.687485 
	C73.926926,59.259628 72.016037,60.507572 71.888092,65.708153 
	C71.773560,70.363251 71.957001,75.037514 71.601692,79.672104 
	C71.054581,86.808716 69.678551,87.396255 63.448429,83.765396 
	C52.677254,77.488045 41.909904,71.203697 31.102869,64.988503 
	C26.824183,62.527809 24.227818,63.535686 24.114210,67.767555 
	C23.931273,74.581970 23.848320,81.410965 24.087042,88.221039 
	C24.278111,93.671745 26.703596,98.188431 31.464331,101.096352 
	C37.278091,104.647484 43.452381,107.661339 49.016762,111.556145 
	C58.861603,118.447044 68.340340,118.711182 78.590340,111.041039 
z"/>
<path fill="#E6EBED" opacity="1.000000" stroke="none" 
	d="
M57.485565,13.231802 
	C62.872124,11.272013 67.694542,11.814477 72.279663,14.424120 
	C79.509499,18.539015 86.683929,22.751284 93.916565,26.861193 
	C100.333458,30.507555 103.289429,36.009216 103.163460,43.333809 
	C103.074699,48.494862 103.170685,53.658817 103.143471,58.821262 
	C103.106918,65.754456 101.062714,66.998291 95.106613,63.589527 
	C84.421310,57.474152 73.791573,51.261761 63.119602,45.122959 
	C57.219940,41.729317 56.275139,42.135178 55.626091,49.132107 
	C55.181522,53.924690 55.384293,58.775002 55.227200,63.597210 
	C55.065445,68.562500 53.231388,69.811966 49.011013,67.538071 
	C43.740887,64.698570 38.528667,61.722706 33.474686,58.516842 
	C22.344749,51.456841 19.030855,34.018814 34.516224,26.126232 
	C42.214909,22.202366 49.594357,17.652161 57.485565,13.231802 
M59.587967,39.881359 
	C72.812675,47.319241 86.037384,54.757122 99.941704,62.577229 
	C99.941704,55.262440 99.940659,48.839806 99.942024,42.417171 
	C99.943222,36.766106 97.475334,32.572613 92.571220,29.761070 
	C85.228561,25.551510 77.916039,21.289412 70.576057,17.075171 
	C66.404892,14.680308 62.040924,14.153979 57.766373,16.576694 
	C50.708965,20.576666 43.770916,24.787231 36.092228,28.984127 
	C26.304821,33.681614 23.312248,44.170467 30.878633,51.835636 
	C36.608875,57.640697 44.355145,61.455715 51.937500,66.659561 
	C52.284210,58.976528 52.399632,52.997326 52.879776,47.047550 
	C53.173111,43.412640 54.395123,40.124947 59.587967,39.881359 
z"/>
<path fill="#E7ECED" opacity="1.000000" stroke="none" 
	d="
M78.264473,111.211761 
	C68.340340,118.711182 58.861603,118.447044 49.016762,111.556145 
	C43.452381,107.661339 37.278091,104.647484 31.464331,101.096352 
	C26.703596,98.188431 24.278111,93.671745 24.087042,88.221039 
	C23.848320,81.410965 23.931273,74.581970 24.114210,67.767555 
	C24.227818,63.535686 26.824183,62.527809 31.102869,64.988503 
	C41.909904,71.203697 52.677254,77.488045 63.448429,83.765396 
	C69.678551,87.396255 71.054581,86.808716 71.601692,79.672104 
	C71.957001,75.037514 71.773560,70.363251 71.888092,65.708153 
	C72.016037,60.507572 73.926926,59.259628 78.342499,61.687485 
	C83.437904,64.489120 88.522888,67.337517 93.419746,70.467049 
	C106.252579,78.668373 106.732712,96.411400 92.411140,103.077812 
	C87.609093,105.313057 83.186424,108.363319 78.264473,111.211761 
M67.407295,89.286354 
	C54.180603,81.816048 40.953915,74.345741 27.165855,66.558380 
	C27.165855,74.169807 27.082527,80.826813 27.193050,87.480606 
	C27.276745,92.519234 29.562822,96.455002 33.930202,99.009354 
	C41.546898,103.464127 49.201843,107.854355 56.874142,112.212860 
	C61.292747,114.723007 65.810760,114.675102 70.197296,112.163147 
	C76.981789,108.278015 83.701920,104.280479 91.116325,100.185280 
	C101.479301,94.975677 103.684219,83.362946 94.961784,75.723915 
	C89.224304,70.699074 82.134460,67.218391 75.257561,62.793587 
	C74.860985,70.143944 74.666405,76.441757 74.126305,82.709801 
	C73.822548,86.234871 72.310989,89.142479 67.407295,89.286354 
z"/>
<path fill="#048DC2" opacity="1.000000" stroke="none" 
	d="
M36.782562,28.909046 
	C43.770916,24.787231 50.708965,20.576666 57.766373,16.576694 
	C62.040924,14.153979 66.404892,14.680308 70.576057,17.075171 
	C77.916039,21.289412 85.228561,25.551510 92.571220,29.761070 
	C97.475334,32.572613 99.943222,36.766106 99.942024,42.417171 
	C99.940659,48.839806 99.941704,55.262440 99.941704,62.577229 
	C86.037384,54.757122 72.812675,47.319241 58.981606,39.581062 
	C51.177685,35.823524 43.980125,32.366287 36.782562,28.909046 
z"/>
<path fill="#0E4F76" opacity="1.000000" stroke="none" 
	d="
M36.437393,28.946587 
	C43.980125,32.366287 51.177685,35.823524 58.617844,39.482819 
	C54.395123,40.124947 53.173111,43.412640 52.879776,47.047550 
	C52.399632,52.997326 52.284210,58.976528 51.937500,66.659561 
	C44.355145,61.455715 36.608875,57.640697 30.878633,51.835636 
	C23.312248,44.170467 26.304821,33.681614 36.437393,28.946587 
z"/>
<path fill="#048EC2" opacity="1.000000" stroke="none" 
	d="
M90.449341,100.330605 
	C83.701920,104.280479 76.981789,108.278015 70.197296,112.163147 
	C65.810760,114.675102 61.292747,114.723007 56.874142,112.212860 
	C49.201843,107.854355 41.546898,103.464127 33.930202,99.009354 
	C29.562822,96.455002 27.276745,92.519234 27.193050,87.480606 
	C27.082527,80.826813 27.165855,74.169807 27.165855,66.558380 
	C40.953915,74.345741 54.180603,81.816048 68.012314,89.589355 
	C75.894676,93.371765 83.172005,96.851189 90.449341,100.330605 
z"/>
<path fill="#0E5076" opacity="1.000000" stroke="none" 
	d="
M90.782837,100.257942 
	C83.172005,96.851189 75.894676,93.371765 68.383636,89.686523 
	C72.310989,89.142479 73.822548,86.234871 74.126305,82.709801 
	C74.666405,76.441757 74.860985,70.143944 75.257561,62.793587 
	C82.134460,67.218391 89.224304,70.699074 94.961784,75.723915 
	C103.684219,83.362946 101.479301,94.975677 90.782837,100.257942 
z"/>
</svg>